<svg version="1.2" xmlns="http://www.w3.org/2000/svg" viewBox="0 0 360 120" width="360" height="120"><style>.a{fill:#fff}.b{fill:#B952C9}.c{fill:#fe3a5e}</style><path class="a" d="m93.9 54.9v-10.4h45.5v10.4zm26.9-30.5v10.7q-1 0-1.9 0-0.8 0-1.6 0-3.2 0-4.3 1.8-1 1.8-1 4.4v43.7h-12.5v-43.7q0-6.1 1.9-9.9 2-3.8 5.6-5.6 3.5-1.9 8.2-1.9 1.3 0 2.7 0.2 1.4 0.1 2.9 0.3zm18.6 60.6h-12.5v-40.5h12.5zm-6.2-46.8q-3 0-5.1-2-2-2.1-2-5.1 0-3 2-5.1 2.1-2 5.1-2 2.9 0 4.9 2 2.1 2.1 2.1 5.1 0 3-2.1 5.1-2 2-4.9 2zm28.2 36.7v10.1h-12.5v-61.1h12.5v35.2l13.1-14.6h15.6l-15.2 16 14.8 24.5h-14.5l-9-15.1zm46.3 10.1h-12.5v-40.5h12.5zm-6.3-46.8q-3 0-5.1-2.1-2-2.1-2-5.1 0-3 2-5 2.1-2 5.1-2 2.9 0 4.9 2 2.1 2 2.1 5 0 3-2.1 5.1-2 2.1-4.9 2.1zm12.8 34h11.8q0.2 2.1 1.7 3.3 1.5 1.2 4.4 1.2 2.9 0 4.3-1 1.3-0.9 1.3-2.5 0-0.9-0.7-1.7-0.6-0.9-2.9-1.4l-7.4-1.6q-5.6-1.3-8.4-3.9-2.7-2.8-2.7-8.1 0-4.2 2.1-7.2 2.3-3 6.1-4.5 3.8-1.6 8.7-1.6 4.7 0 8.2 1.7 3.7 1.7 5.7 4.8 2 3 2 7.2h-11.8q0-2.1-1.2-3.4-1.2-1.2-3.5-1.2-2.1 0-3.4 1-1.2 1-1.2 2.6 0 2.6 4.4 3.6l7.5 1.6q5 1 7.6 3.6 2.7 2.5 2.7 7.4 0 4.3-2.3 7.5-2.2 3.1-6.3 4.8-4 1.6-9.3 1.6-8 0-12.7-3.8-4.7-3.9-4.7-10zm54.2 12.8h-12.4v-40.5h12.4zm-6.3-46.8q-3 0-5.1-2.1-2-2.1-2-5.1 0-3 2-5 2.1-2 5.1-2 2.9 0 5 2 2.1 2 2.1 5 0 3-2.1 5.1-2.1 2.1-5 2.1zm28.2 66.2h-12.5v-59.9h11.8l0.6 4.9q1.7-2.8 5.3-4.5 3.6-1.7 7.9-1.7 5.6 0 9.9 2.5 4.3 2.5 6.7 7.2 2.5 4.6 2.5 11.2 0 6.4-2.3 11.4-2.2 4.9-6.5 7.8-4.2 2.8-10.3 2.8-4.2 0-7.7-1.4-3.6-1.5-5.4-3.8zm0.1-39.7q0 3 1.2 5.4 1.3 2.3 3.5 3.5 2.3 1.3 5.2 1.3 3 0 5.1-1.3 2.2-1.3 3.3-3.6 1.2-2.3 1.2-5.3 0-3-1.2-5.2-1.1-2.3-3.3-3.6-2.1-1.3-5.1-1.3-2.9 0-5.2 1.3-2.2 1.2-3.5 3.5-1.2 2.3-1.2 5.3zm51.8 20.3h-12.5v-40.5h12.5zm-6.4-46.8q-3 0-5.1-2.1-2-2.1-2-5.1 0-3 2-5 2.1-2 5.1-2 3 0 5 2 2.1 2 2.1 5 0 3-2.1 5.1-2 2.1-5 2.1z"/><path class="b" d="m81.5 17.6l-24.7 71.5h-16.2l24.7-71.5z"/><path class="c" d=""/><path class="b" d="m55.6 17.6l-24.7 71.5h-16.3l24.7-71.5z"/><path class="a" d="m19 69.2c-3.4-0.7-6.5-2.5-8.8-5.1-3.2-5.2-4.6-11.3-4.1-17.4v-8.3h16.5v6.9c-0.2 1.8 0.3 3.7 1.3 5.2 0.3 0.4 0.8 0.7 1.2 1z"/><path class="a" d="m76.7 63.4v8.3h-16.6v-6.7c0.2-1.9-0.4-3.8-1.6-5.2-1.4-1.2-3.2-1.8-5.1-1.6-2.2 0-4.3 0.6-6.2 1.6-1.3 0.7-2.7 1.5-4 2.3l7.1-20.6c2.2-0.6 4.5-0.9 6.7-0.9 5.6-0.5 11.1 1.5 15 5.4 3.6 5.1 5.2 11.2 4.7 17.4z"/></svg>