<svg version="1.2" xmlns="http://www.w3.org/2000/svg" viewBox="0 0 436 102" width="152" height="35"><path fill="white" d="m82.9 83v-2.6h2q4.7 0 5.7-0.8 1.1-0.8 1.1-3.3v-45.1q0-2.5-1.1-3.2-1.1-0.8-5.7-0.8h-2v-2.7h47.2l2.3 19.4h-2.1q-0.6-4.9-1.4-7.7-0.7-2.8-2.5-5.1-1.8-2.2-4.7-3-3-0.9-7.8-0.9h-10.3q-3 0-3.6 0.6-0.6 0.6-0.6 2.8v21.8h7.3q5.9 0 7.5-2.1 1.7-2.1 1.7-8h2.1v22.8h-2.1q0-5.9-1.7-8-1.6-2.1-7.5-2.1h-7.3v21.2q0 1.8 0.3 2.5 0.2 0.7 2.1 1.2 1.8 0.5 5.7 0.5h2.9v2.6q-3.1-0.3-14.5-0.3-10 0-13 0.3zm55.6 0v-2.6h2.2q4.8 0 5.9-0.8 1.2-0.8 1.2-3.3v-45.3q0-2.5-1.2-3.3-1.1-0.8-5.9-0.8h-2.2v-2.6q3 0.2 13.1 0.2 10.1 0 13.1-0.2v2.6h-2.2q-4.9 0-6 0.8-1.1 0.8-1.1 3.3v45.3q0 2.5 1.1 3.3 1.1 0.8 6 0.8h2.2v2.6q-3-0.3-13.1-0.3-10.1 0-13.1 0.3zm31.4 0v-2.6h2.1q4.7 0 5.7-0.8 1.1-0.8 1.1-3.3v-45.3q0-2.5-1.1-3.3-1.1-0.8-5.7-0.8h-2.1v-2.6q3.1 0.2 12.8 0.2 9.6 0 12.6-0.2v2.6h-2q-4.7 0-5.8 0.8-1 0.8-1 3.3v27.3l26.9-25.7q1.5-1.4 1.5-2.8 0-0.6-0.2-1.1-0.2-0.6-1.2-1.2-1-0.6-2.6-0.6v-2.6q3 0.2 11 0.2 5.1 0 7.3-0.2v2.6q-7.1 0.1-12.2 5.2l-15.5 14.9 19.8 29.2q1.9 2.6 3.6 3.4 1.8 0.8 5.5 0.8v2.6q-5.4-0.3-9.9-0.3-9.3 0-12.3 0.3v-2.6q5.1 0 5.1-2.6 0-1-1.3-3l-15.6-23-9.9 9.4v15.1q0 2.5 1 3.3 1.1 0.8 5.8 0.8h2v2.6q-3-0.3-12.7-0.3-9.6 0-12.7 0.3zm66.4 0v-2.6h2.3q4.8 0 5.9-0.8 1.1-0.8 1.1-3.3v-45.3q0-2.5-1.1-3.3-1.2-0.8-5.9-0.8h-2.3v-2.6q3 0.2 13.2 0.2 10.1 0 13-0.2v2.6h-2.2q-4.8 0-5.9 0.8-1.1 0.8-1.1 3.3v45.3q0 2.5 1.1 3.3 1.1 0.8 5.9 0.8h2.2v2.6q-3-0.3-13.1-0.3-10.1 0-13.1 0.3zm33.5-0.2v-17.2q0-1 0-1.3 0-0.3 0.3-0.6 0.3-0.2 0.8-0.2 0.9 0 1 0.9 0.3 8.5 5.3 13.2 5 4.6 13.6 4.6 5.2 0 8.4-3.7 3.1-3.7 3.1-8.6 0-4.6-2.6-7.9-1.2-1.5-2.6-2.4-1.4-1-2.3-1.2-0.8-0.3-2.4-0.8-10.7-2.5-11.4-2.8-5.1-1.7-8.2-6.1-3-4.3-3-9.7 0-6.9 4.8-11.7 4.9-4.9 11.9-4.9 3.5 0 6.5 1.1 3 1.1 4.2 2.1 1.2 1 3.1 2.8l3-4.9q0.6-1.1 1.3-1.1 0.6 0 0.8 0.4 0.1 0.4 0.1 1.6v17.3q0 1 0 1.3 0 0.4-0.3 0.6-0.3 0.2-0.8 0.2-0.8 0-1-1-2.4-18-16.8-18-4.9 0-8.1 3.3-3.2 3.3-3.2 8 0 3.7 2.3 6.8 2.4 3.1 6.4 4.1l11 2.6q5.5 1.3 9.2 6.2 3.6 4.9 3.6 11.2 0 7.3-4.7 12.6-4.8 5.3-12.2 5.3-5.3 0-9.5-1.8-4.1-1.7-6.3-4.2-1.7 2.8-2.9 4.4l-0.2 0.5q-0.7 1.1-1.3 1.1-0.7 0-0.8-0.4-0.1-0.5-0.1-1.7zm45.2 0.2v-2.6h2.3q4.8 0 5.9-0.8 1.2-0.8 1.2-3.3v-45.3q0-2.5-1.2-3.3-1.1-0.8-5.9-0.8h-2.3v-2.6q3.1 0.2 13.2 0.2 10.1 0 13.1-0.2v2.6h-2.3q-4.8 0-5.9 0.8-1.1 0.8-1.1 3.3v45.3q0 2.5 1.1 3.3 1.1 0.8 5.9 0.8h2.3v2.6q-3-0.3-13.2-0.3-10 0-13.1 0.3zm31.7 0v-2.6h2q4.7 0 5.8-0.8 1.1-0.8 1.1-3.3v-45.3q0-2.5-1.1-3.3-1.1-0.8-5.8-0.8h-2v-2.6h30.4q8.6 0 14.4 4.7 5.8 4.8 5.8 11.3 0 6.3-5.9 11-5.9 4.5-13.7 4.5h-14.5v20.5q0 2.5 1 3.3 1.1 0.8 5.8 0.8h2.1v2.6q-3.1-0.3-12.8-0.3-9.6 0-12.6 0.3zm16.2-52.6v23.2h11.9q3.8 0 6.7-1.1 2.8-1.1 4-2.4 1.3-1.3 2.1-3.5 0.7-2.1 0.8-3.3 0.1-1.2 0.1-3 0-1.9-0.1-3.1-0.1-1.2-0.8-3.4-0.8-2.2-2.1-3.5-1.2-1.3-4-2.3-2.8-1.1-6.7-1.1h-7.7q-2.9 0-3.5 0.6-0.7 0.6-0.7 2.9zm41.6 52.6v-2.6h2.3q4.8 0 5.9-0.8 1.1-0.8 1.1-3.3v-45.3q0-2.5-1.1-3.3-1.1-0.8-5.9-0.8h-2.3v-2.6q3 0.2 13.2 0.2 10.1 0 13.1-0.2v2.6h-2.3q-4.8 0-5.9 0.8-1.1 0.8-1.1 3.3v45.3q0 2.5 1.1 3.3 1.1 0.8 5.9 0.8h2.3v2.6q-3.1-0.3-13.2-0.3-10.1 0-13.1 0.3z"></path><path fill="white" d="m50.6 43.6l1.6-1.5 0.7 0.6-2.9 3.3q-1.4 1.5-2.7 1.2-0.9-0.2-2.1-1-4.8-2.7-6.2-3.6l-3.1 12.7 7.4 1.8-1.8 1.2-6-1.5-0.5 2.3q-0.9 3.5-2.6 6.4-1.7 2.7-3.9 4-5.7 3.5-11.9 2-3-0.7-4.7-3.5-0.9-1.5-0.5-3 0.2-0.9 1.1-1.5 0.8-0.4 1.8-0.1 0.8 0.1 1 0.5 0.3 0.5 0.5 1.8 0.2 1.3 0.7 2 1.1 1.9 3.3 2.4 2.5 0.7 6-1.5 1.8-1.1 3.1-3.2 1.3-2.1 2-5.2l1.1-4.2-8.4-2.1 1.3-1.3 7.5 1.8 3.3-13.6q-2.1-1.1-3.5-1.4-4.5-1.1-7.7 0.8-2 1.2-2.5 3.2-0.4 1.4-0.4 2.1l0.1 1.8q-0.3 1.1-1 1.5-1 0.5-1.6 0.4-0.9-0.2-1.5-1.1-0.5-0.9-0.1-2.6 1-4.1 4.4-6.2 4.8-2.9 12-1.2 0.8 0.2 2.3 0.8l3.8-0.4-0.4 1.7q4.1 2.2 7.3 3.5 1 0.5 1.5 0.6 1.2 0.3 2.2-0.7z"></path></svg>