
<svg version="1.2" xmlns="http://www.w3.org/2000/svg" viewBox="0 0 360 120" width="360" height="120"><style>.a{fill:#fff}.b{fill:#fe3a5e}.c{fill:#b952c9}</style><path fill-rule="evenodd" class="a" d="m93.9 54.9v-10.4h5.6v-3.2q0-6.1 1.9-9.9 2-3.8 5.6-5.6 3.5-1.9 8.2-1.9 1.3 0 2.7 0.2 1.4 0.1 2.9 0.3v10.7q-1 0-1.9 0-0.8 0-1.6 0-3.2 0-4.3 1.8-1 1.8-1 4.4v3.2h27.4v40.5h-12.5v-30.1h-14.9v30.1h-12.5v-30.1zm39.3-16.7q-3 0-5.1-2-2-2.1-2-5.1 0-3 2-5.1 2.1-2 5.1-2 2.9 0 4.9 2 2.1 2.1 2.1 5.1 0 3-2.1 5.1-2 2-4.9 2zm28.2 36.7v10.1h-12.5v-61.1h12.5v35.2l13.1-14.6h15.6l-15.2 16 14.8 24.5h-14.5l-9-15.1zm46.3 10.1h-12.5v-40.5h12.5zm-6.3-46.8q-3 0-5.1-2.1-2-2.1-2-5.1 0-3 2-5 2.1-2 5.1-2 2.9 0 4.9 2 2.1 2 2.1 5 0 3-2.1 5.1-2 2.1-4.9 2.1zm12.8 34h11.8q0.2 2.1 1.7 3.3 1.5 1.2 4.4 1.2 2.9 0 4.3-1 1.3-0.9 1.3-2.5 0-0.9-0.7-1.7-0.6-0.9-2.9-1.4l-7.4-1.6q-5.6-1.3-8.4-3.9-2.7-2.8-2.7-8.1 0-4.2 2.1-7.2 2.3-3 6.1-4.5 3.8-1.6 8.7-1.6 4.7 0 8.2 1.7 3.7 1.7 5.7 4.8 2 3 2 7.2h-11.8q0-2.1-1.2-3.4-1.2-1.2-3.5-1.2-2.1 0-3.4 1-1.2 1-1.2 2.6 0 2.6 4.4 3.6l7.5 1.6q5 1 7.6 3.6 2.7 2.5 2.7 7.4 0 4.3-2.3 7.5-2.2 3.1-6.3 4.8-4 1.6-9.3 1.6-8 0-12.7-3.8-4.7-3.9-4.7-10zm54.2 12.8h-12.4v-40.5h12.4zm-6.3-46.8q-3 0-5.1-2.1-2-2.1-2-5.1 0-3 2-5 2.1-2 5.1-2 2.9 0 5 2 2.1 2 2.1 5 0 3-2.1 5.1-2.1 2.1-5 2.1zm28.2 66.2h-12.5v-59.9h11.8l0.6 4.9q1.7-2.8 5.3-4.5 3.6-1.7 7.9-1.7 5.6 0 9.9 2.5 4.3 2.5 6.7 7.2 2.5 4.6 2.5 11.2 0 6.4-2.3 11.4-2.2 4.9-6.5 7.8-4.2 2.8-10.3 2.8-4.2 0-7.7-1.4-3.6-1.5-5.4-3.8zm0.1-39.7q0 3 1.2 5.4 1.3 2.3 3.5 3.5 2.3 1.3 5.2 1.3 3 0 5.1-1.3 2.2-1.3 3.3-3.6 1.2-2.3 1.2-5.3 0-3-1.2-5.2-1.1-2.3-3.3-3.6-2.1-1.3-5.1-1.3-2.9 0-5.2 1.3-2.2 1.2-3.5 3.5-1.2 2.3-1.2 5.3zm51.8 20.3h-12.5v-40.5h12.5zm-6.4-46.8q-3 0-5.1-2.1-2-2.1-2-5.1 0-3 2-5 2.1-2 5.1-2 3 0 5 2 2.1 2 2.1 5 0 3-2.1 5.1-2 2.1-5 2.1z"/><path class="b" d=""/><path class="c" d="m33.6 6.6c8.7 4.7 15.7 9.7 25.4 14.8l-1.1 0.5c6.3-2.7 6.1-2.4 18.7-6.8l0.7 0.2c-0.1 0-18.3 8.5-18.4 8.7-8.7-5.7-17.3-11.5-26-17.3z"/><path class="c" d="m58.5 26.7l-1.2-0.7c-5.6-3.6-11.1-7.3-16.7-11.1-3.1-1.8-6.1-4.1-9.2-6.1l-4.5-2.9 6.9-1.9 1 0.5c4.6 2.4 8.7 4.8 13.1 7.5 3.6 2.2 7.4 4.5 11.5 6.9 3.9-1.7 5.3-2.3 13.8-4.8l3.6-1.2 6.5 2.4-5.1 2.4c-0.2 0-18.3 8.5-18.5 8.7z"/><path class="c" d="m59.4 93.7c-7.7 5.8-16.9 10.2-27.7 13.1-2.9-1.5-5.6-2.9-8.5-4.4l-21.2-10.4c0-0.2 0-0.7 0-1.2 11.6-1.1 20.8-4.1 27.7-10.3 7.7-6.8 11.6-16 11.6-28.2 0-13.6-3.8-24.2-11.6-31.6-6.5-6.3-15.7-10-27.4-10.7 0.2-0.4 0.2-0.4 0.2-0.5 8.6 0.5 16.8 2.4 24.6 5.9 9.6 4.3 19.5 10.8 30.4 20l22-9.7c1.8 8.9 1.8 8 1.8 18.8 0 21.2-7.4 37.4-21.9 49.2z"/></svg>