<svg version="1.2" xmlns="http://www.w3.org/2000/svg" viewBox="0 0 436 102" width="152" height="35"><path fill="#fff" d="m30.8 47.7v-9.4h41.3v9.4zm24.4-27.7v9.7q-0.9 0-1.8 0-0.7 0-1.4 0-2.9 0-3.8 1.6-1 1.7-1 4v39.7h-11.3v-39.7q0-5.5 1.7-8.9 1.8-3.5 5-5.1 3.3-1.7 7.5-1.7 1.2 0 2.5 0.1 1.3 0.1 2.6 0.3zm16.9 55h-11.4v-36.7h11.4zm-5.6-42.5q-2.8 0-4.7-1.9-1.8-1.9-1.8-4.6 0-2.7 1.8-4.5 1.9-1.9 4.7-1.9 2.6 0 4.4 1.9 1.9 1.8 1.9 4.5 0 2.7-1.9 4.6-1.8 1.9-4.4 1.9zm25.5 33.3v9.2h-11.3v-55.5h11.3v31.9l11.9-13.2h14.2l-13.8 14.6 13.4 22.2h-13.1l-8.2-13.8zm42 9.2h-11.3v-36.7h11.3zm-5.7-42.5q-2.8 0-4.7-1.9-1.8-1.9-1.8-4.6 0-2.7 1.8-4.5 1.9-1.9 4.7-1.9 2.6 0 4.4 1.9 2 1.8 2 4.5 0 2.7-2 4.6-1.8 1.9-4.4 1.9zm11.6 30.8h10.7q0.2 2 1.5 3.1 1.4 1.1 4 1.1 2.7 0 3.9-0.9 1.3-0.9 1.3-2.3 0-0.8-0.7-1.6-0.6-0.8-2.6-1.3l-6.8-1.4q-5.1-1.1-7.6-3.6-2.5-2.5-2.5-7.3 0-3.8 2-6.5 2.1-2.7 5.5-4.1 3.5-1.5 7.9-1.5 4.2 0 7.5 1.6 3.3 1.5 5.1 4.3 1.9 2.8 1.9 6.6h-10.8q0-2-1.1-3.1-1.1-1.1-3.1-1.1-1.9 0-3.1 0.9-1.1 0.9-1.1 2.4 0 2.3 4 3.2l6.8 1.5q4.5 0.9 6.9 3.3 2.4 2.3 2.4 6.7 0 3.9-2 6.7-2.1 2.9-5.8 4.4-3.6 1.5-8.4 1.5-7.3 0-11.6-3.4-4.2-3.6-4.2-9.2zm49.2 11.7h-11.3v-36.8h11.3zm-5.7-42.5q-2.7 0-4.6-1.8-1.9-1.9-1.9-4.6 0-2.8 1.9-4.6 1.9-1.8 4.6-1.8 2.6 0 4.5 1.8 1.9 1.8 1.9 4.6 0 2.7-1.9 4.6-1.9 1.8-4.5 1.8zm25.6 60.1h-11.4v-54.3h10.7l0.6 4.4q1.5-2.5 4.8-4.1 3.2-1.5 7.1-1.5 5.1 0 9 2.3 3.9 2.2 6.1 6.5 2.2 4.2 2.2 10.1 0 5.9-2 10.4-2 4.5-5.9 7.1-3.8 2.5-9.3 2.5-3.9 0-7.1-1.3-3.2-1.3-4.8-3.4zm0-36q0 2.7 1.1 4.9 1.2 2 3.2 3.2 2.1 1.1 4.7 1.1 2.7 0 4.6-1.2 2-1.1 3-3.2 1.1-2.1 1.1-4.8 0-2.7-1.1-4.8-1-2-3-3.2-1.9-1.2-4.6-1.2-2.6 0-4.7 1.2-2 1.1-3.2 3.2-1.1 2-1.1 4.8zm47 18.4h-11.3v-36.7h11.3zm-5.7-42.5q-2.8 0-4.7-1.9-1.8-1.9-1.8-4.6 0-2.7 1.8-4.5 1.9-1.9 4.7-1.9 2.6 0 4.4 1.9 2 1.8 2 4.5 0 2.7-2 4.6-1.8 1.9-4.4 1.9z"/></svg>